<svg width="69" height="86" viewBox="0 0 69 86" fill="none" xmlns="http://www.w3.org/2000/svg">
<g id="Group 3">
<g id="Group 1">
<path id="Vector" d="M44.0792 1.28978C43.3891 2.02052 41.7537 3.56798 40.4485 4.75723C36.0976 8.68319 35.2124 10.0874 35.0923 13.2969C35.0023 15.9047 35.6325 17.882 37.2678 20.1315C37.7029 20.7333 38.063 21.1918 38.063 21.1345C38.063 21.0915 37.7929 20.5327 37.4628 19.9023C36.2026 17.4951 35.8275 14.5721 36.5176 12.4945C37.1628 10.5459 38.108 9.37096 41.3037 6.54827C41.9788 5.96081 42.804 5.1441 43.149 4.75723L43.7942 4.04081L43.7042 7.04976C43.6591 9.0414 43.5541 10.4169 43.3891 11.1333C42.834 13.5548 41.7537 15.4748 39.7883 17.5811C38.363 19.1142 37.958 19.9882 38.348 20.7047C38.408 20.8336 38.5131 21.3781 38.5731 21.8939L38.6631 22.8396L37.8079 23.3841C34.9123 25.2181 32.8719 27.8688 32.0467 30.8778C31.8217 31.6802 31.7316 32.4539 31.7316 33.7005C31.7166 36.3512 32.2267 38.5578 33.517 41.3375L34.1922 42.799L33.9521 43.9452C33.7121 45.1058 33.637 48.5589 33.8471 49.4616C33.9221 49.8198 34.0121 49.8915 34.3872 49.8915H34.8373L34.9423 48.0431C35.3324 41.4521 37.6129 37.6264 42.969 34.5745C47.0949 32.2246 48.3101 30.9064 51.0557 25.8056C53.2162 21.7506 53.9063 20.676 55.5716 18.6271L56.5168 17.4665L55.1816 18.0109C53.0211 18.8993 49.9155 19.7877 46.1647 20.59C42.5639 21.3494 40.9286 21.7936 39.6833 22.3954C39.2932 22.5817 38.9332 22.7393 38.8881 22.7393C38.8431 22.7393 38.8281 22.1662 38.8731 21.4497C38.9482 19.9166 38.9632 19.8879 41.2887 17.5668C42.5489 16.3202 43.074 15.6611 43.5091 14.8444C44.4693 13.0247 44.5443 12.4945 44.4393 8.98409C44.3343 5.68858 44.5143 3.53933 45.1145 1.14649C45.2645 0.530376 45.3845 0.0145531 45.3695 0.000225067C45.3545 -0.0141029 44.7694 0.57336 44.0792 1.28978ZM50.9957 23.7566C47.9801 29.0581 45.8796 31.3076 41.0636 34.4169C40.1184 35.033 39.0082 35.8067 38.6031 36.122C37.1178 37.2969 35.4224 39.6181 34.7773 41.3518C34.6273 41.7673 34.4622 42.0539 34.4172 41.9822C34.1772 41.624 33.532 38.7011 33.382 37.3399C32.8869 32.8264 34.6423 28.8718 38.333 26.2211C40.4485 24.6879 42.3689 23.9859 46.2397 23.3124C47.89 23.0259 50.5156 22.2951 51.6408 21.8223C51.8959 21.722 52.1059 21.6503 52.1359 21.6647C52.1509 21.679 51.6408 22.6247 50.9957 23.7566Z" fill="#151618"/>
<path id="Vector_2" d="M17.681 4.86836C18.5758 8.09669 18.8442 12.3294 18.4117 16.2895C17.8749 21.2252 18.3223 22.7175 21.5136 26.778C22.3786 27.8684 23.3479 29.2889 23.6909 29.9202C24.6602 31.7998 25.1822 34.4686 25.1971 37.6826V39.0169L24.8392 38.8735C24.0041 38.5721 22.4979 38.443 18.71 38.3713C16.5029 38.3282 14.2212 38.2278 13.6396 38.1704C13.0729 38.0987 12.5808 38.07 12.5659 38.0843C12.5361 38.0987 12.8343 38.3282 13.237 38.6008C14.9221 39.763 16.6222 41.2696 18.5907 43.3501C19.7539 44.5697 21.1408 45.9184 21.6926 46.3345C24.0488 48.128 26.748 49.1754 30.0139 49.5485C31.3561 49.7063 30.8192 49.2185 28.5525 48.2715C24.9436 46.7506 23.1391 45.5166 20.3653 42.6901C19.3214 41.6283 18.0538 40.4948 17.5617 40.1648L16.6669 39.5909H18.4267C23.0496 39.5909 25.6594 40.4518 27.8814 42.7044C28.985 43.8092 29.7753 45.1866 30.178 46.6645C30.2973 47.138 30.4315 47.5541 30.4762 47.5971C30.6254 47.7263 30.5806 45.904 30.4166 44.8997C30.0736 42.8192 28.3437 40.5235 26.3603 39.5191L25.4953 39.0887V36.7212C25.4953 32.015 25.0629 30.3937 22.7961 26.7206C19.7986 21.8422 19.3065 19.9196 19.396 13.1616C19.4258 11.0668 19.4706 9.34498 19.4855 9.35933C19.4855 9.37368 19.7986 9.77543 20.1565 10.2489C20.5294 10.7224 21.8566 12.1429 23.1242 13.4055C26.1962 16.4617 27.3744 18.2265 28.1051 20.8809C28.9253 23.7936 28.2542 27.8684 26.3156 31.7998C25.9576 32.5316 25.6892 33.1342 25.7041 33.1342C25.7339 33.1342 25.9875 32.7898 26.2857 32.3594C28.627 28.9732 29.8052 25.1566 29.6262 21.5839C29.5218 19.6326 29.1192 18.1117 28.2691 16.4186C27.4042 14.6681 26.405 13.4342 23.5119 10.5502C21.2601 8.29757 19.7092 6.63319 18.0837 4.79662L17.4573 4.07922L17.681 4.86836Z" fill="#151618"/>
<path id="Vector_3" d="M44.5727 40.0357C41.1472 40.7346 38.8185 43.6443 38.8034 47.2101C38.8034 47.9233 38.7734 47.9803 38.3377 48.123C37.5565 48.3797 38.1274 48.5081 40.5462 48.6079C44.0017 48.7505 46.1201 48.3654 47.923 47.2529C48.4188 46.9534 49.6658 45.9977 50.7024 45.1277C52.8058 43.3875 53.8875 42.6459 55.6604 41.7473L56.8473 41.1482L55.4049 41.0484C54.6237 41.0056 53.2265 40.8201 52.295 40.6633C51.3635 40.5064 49.8911 40.2496 49.0198 40.107C47.1868 39.7932 45.8647 39.7647 44.5727 40.0357ZM49.5306 41.8186C50.2667 41.9897 51.4086 42.1752 52.0396 42.218L53.2114 42.3178L51.5738 43.573C49.0799 45.4843 47.4272 46.3543 45.3088 46.8678C44.2271 47.1388 39.3894 47.8377 39.2842 47.7379C39.149 47.6095 39.5847 46.283 40.1105 45.2418C41.027 43.4303 42.7548 42.1324 44.9332 41.6046C46.045 41.3336 47.7878 41.4192 49.5306 41.8186Z" fill="#151618"/>
<path id="Vector_4" d="M11.0565 55.6405C10.876 63.3894 11.2971 66.0108 13.3276 69.9141C14.3955 71.9593 16.1251 74.3502 17.3584 75.4737C17.6592 75.7473 17.8999 76.0066 17.8999 76.0498C17.8999 76.1074 14.1548 76.1218 9.59753 76.093C5.02522 76.0642 1.12973 76.093 0.9342 76.1362C0.753713 76.1794 0.513065 76.3811 0.422822 76.5683C0.287458 76.8708 0.302498 76.9716 0.528106 77.2165C0.798835 77.5045 0.964283 77.5045 34.4745 77.5045C57.4113 77.5045 68.2405 77.4613 68.4511 77.3605C68.8421 77.1588 68.8421 76.4099 68.4511 76.2082C68.2555 76.1218 65.1572 76.0642 59.4117 76.0642H50.6732L51.5906 75.0128C54.2077 72.0601 55.9073 68.8194 57.0203 64.6857C57.3361 63.5479 57.3662 63.0582 57.4113 57.2969L57.4865 51.1467H34.3241H11.1617L11.0565 55.6405Z" fill="#151618"/>
<path id="Vector_5" d="M4.81415 79.4547C9.89634 81.7458 17.7301 83.6127 25.0377 84.2774C26.3308 84.4047 26.9172 84.5037 26.6916 84.5603C26.3759 84.6451 26.3608 84.6593 26.6164 84.6734C26.7818 84.6876 27.8043 84.7583 28.8719 84.8431C34.375 85.225 46.1633 84.9987 45.8325 84.5037C45.7874 84.433 45.8025 84.4047 45.8927 84.4471C45.9679 84.4896 46.2385 84.4754 46.4791 84.4047C46.9001 84.2916 46.9001 84.2916 46.3137 84.2633C45.9528 84.2491 46.7197 84.0794 48.1932 83.839C52.7792 83.1036 56.5532 82.2125 59.6507 81.1377C61.4249 80.5154 64.8682 79.1011 65.1088 78.8748C65.1839 78.8041 53.4408 78.7475 34.2848 78.7617L3.31055 78.7758L4.81415 79.4547Z" fill="#151618"/>
</g>
</g>
</svg>
