<svg width="69" height="86" viewBox="0 0 69 86" fill="none" xmlns="http://www.w3.org/2000/svg">
<path d="M43.7429 1.28965C43.0528 2.0204 41.4174 3.56786 40.1122 4.75711C35.7613 8.68307 34.8761 10.0872 34.756 13.2968C34.666 15.9046 35.2962 17.8819 36.9315 20.1314C37.3666 20.7332 37.7267 21.1917 37.7267 21.1344C37.7267 21.0914 37.4566 20.5326 37.1265 19.9022C35.8663 17.495 35.4912 14.572 36.1813 12.4944C36.8265 10.5458 37.7717 9.37083 40.9674 6.54815C41.6425 5.96069 42.4677 5.14397 42.8127 4.75711L43.4579 4.04069L43.3679 7.04964C43.3228 9.04128 43.2178 10.4168 43.0528 11.1332C42.4977 13.5547 41.4174 15.4747 39.452 17.581C38.0267 19.1141 37.6216 19.9881 38.0117 20.7045C38.0717 20.8335 38.1768 21.378 38.2368 21.8938L38.3268 22.8395L37.4716 23.3839C34.576 25.218 32.5356 27.8687 31.7104 30.8777C31.4854 31.68 31.3953 32.4538 31.3953 33.7003C31.3803 36.3511 31.8904 38.5576 33.1807 41.3373L33.8559 42.7988L33.6158 43.9451C33.3758 45.1057 33.3007 48.5588 33.5108 49.4615C33.5858 49.8197 33.6758 49.8914 34.0509 49.8914H34.501L34.606 48.043C34.9961 41.452 37.2766 37.6263 42.6327 34.5744C46.7586 32.2245 47.9738 30.9063 50.7194 25.8054C52.8799 21.7505 53.57 20.6759 55.2353 18.6269L56.1805 17.4663L54.8453 18.0108C52.6848 18.8992 49.5792 19.7875 45.8284 20.5899C42.2276 21.3493 40.5923 21.7935 39.347 22.3953C38.9569 22.5816 38.5969 22.7392 38.5518 22.7392C38.5068 22.7392 38.4918 22.166 38.5368 21.4496C38.6119 19.9165 38.6269 19.8878 40.9523 17.5666C42.2126 16.3201 42.7377 15.661 43.1728 14.8443C44.133 13.0246 44.208 12.4944 44.103 8.98397C43.998 5.68845 44.178 3.5392 44.7782 1.14637C44.9282 0.530253 45.0482 0.0144308 45.0332 0.000102466C45.0182 -0.0142259 44.4331 0.573237 43.7429 1.28965ZM50.6594 23.7565C47.6438 29.058 45.5433 31.3075 40.7273 34.4168C39.7821 35.0329 38.6719 35.8066 38.2668 36.1218C36.7815 37.2968 35.0861 39.6179 34.441 41.3517C34.2909 41.7672 34.1259 42.0538 34.0809 41.9821C33.8409 41.6239 33.1957 38.7009 33.0457 37.3397C32.5506 32.8263 34.306 28.8717 37.9967 26.221C40.1122 24.6878 42.0326 23.9857 45.9034 23.3123C47.5537 23.0257 50.1793 22.295 51.3045 21.8222C51.5596 21.7219 51.7696 21.6502 51.7996 21.6645C51.8146 21.6789 51.3045 22.6245 50.6594 23.7565Z" fill="white"/>
<path d="M17.3447 4.86849C18.2395 8.09682 18.5079 12.3295 18.0754 16.2896C17.5386 21.2254 17.986 22.7176 21.1773 26.7781C22.0423 27.8686 23.0116 29.289 23.3546 29.9203C24.3239 31.7999 24.8459 34.4687 24.8608 37.6827V39.0171L24.5029 38.8736C23.6678 38.5723 22.1616 38.4431 18.3737 38.3714C16.1666 38.3283 13.8849 38.2279 13.3033 38.1705C12.7366 38.0988 12.2445 38.0701 12.2296 38.0844C12.1998 38.0988 12.498 38.3283 12.9007 38.601C14.5858 39.7632 16.2859 41.2697 18.2544 43.3502C19.4176 44.5698 20.8045 45.9185 21.3563 46.3346C23.7125 48.1281 26.4117 49.1755 29.6776 49.5486C31.0198 49.7064 30.4829 49.2186 28.2162 48.2716C24.6073 46.7507 22.8028 45.5168 20.029 42.6902C18.9851 41.6284 17.7175 40.4949 17.2254 40.1649L16.3306 39.591H18.0903C22.7133 39.591 25.3231 40.4519 27.5451 42.7045C28.6486 43.8093 29.439 45.1868 29.8417 46.6646C29.961 47.1381 30.0952 47.5542 30.1399 47.5972C30.2891 47.7264 30.2443 45.9042 30.0803 44.8998C29.7373 42.8193 28.0074 40.5236 26.024 39.5192L25.159 39.0888V36.7214C25.159 32.0152 24.7266 30.3938 22.4598 26.7207C19.4623 21.8423 18.9702 19.9197 19.0597 13.1617C19.0895 11.0669 19.1342 9.34511 19.1492 9.35945C19.1492 9.3738 19.4623 9.77555 19.8202 10.249C20.1931 10.7225 21.5203 12.143 22.7879 13.4056C25.8599 16.4618 27.0381 18.2266 27.7688 20.881C28.589 23.7937 27.9179 27.8686 25.9792 31.7999C25.6213 32.5317 25.3529 33.1343 25.3678 33.1343C25.3976 33.1343 25.6512 32.79 25.9494 32.3595C28.2907 28.9734 29.4689 25.1568 29.2899 21.5841C29.1855 19.6327 28.7829 18.1118 27.9328 16.4187C27.0679 14.6683 26.0687 13.4343 23.1756 10.5503C20.9238 8.29769 19.3729 6.63331 17.7474 4.79674L17.121 4.07934L17.3447 4.86849Z" fill="white"/>
<path d="M44.2364 40.0358C40.8109 40.7347 38.4822 43.6444 38.4671 47.2102C38.4671 47.9234 38.4371 47.9805 38.0014 48.1231C37.2201 48.3798 37.7911 48.5082 40.2099 48.608C43.6654 48.7507 45.7838 48.3656 47.5867 47.253C48.0825 46.9535 49.3295 45.9979 50.3661 45.1278C52.4695 43.3877 53.5512 42.646 55.3241 41.7474L56.5109 41.1483L55.0686 41.0485C54.2874 41.0057 52.8902 40.8203 51.9587 40.6634C51.0272 40.5065 49.5548 40.2497 48.6835 40.1071C46.8505 39.7933 45.5284 39.7648 44.2364 40.0358ZM49.1943 41.8187C49.9304 41.9899 51.0723 42.1753 51.7033 42.2181L52.8751 42.3179L51.2375 43.5731C48.7435 45.4844 47.0909 46.3544 44.9725 46.8679C43.8908 47.1389 39.0531 47.8378 38.9479 47.738C38.8127 47.6096 39.2484 46.2831 39.7742 45.2419C40.6907 43.4305 42.4184 42.1325 44.5969 41.6048C45.7087 41.3337 47.4515 41.4193 49.1943 41.8187Z" fill="white"/>
<path d="M10.7202 55.6404C10.5397 63.3893 10.9608 66.0107 12.9913 69.9139C14.0592 71.9592 15.7888 74.3501 17.0221 75.4735C17.3229 75.7472 17.5636 76.0065 17.5636 76.0497C17.5636 76.1073 13.8185 76.1217 9.26123 76.0929C4.68892 76.0641 0.793423 76.0929 0.597896 76.1361C0.41741 76.1793 0.176762 76.3809 0.0865185 76.5682C-0.0488461 76.8707 -0.0338056 76.9715 0.191802 77.2163C0.462531 77.5044 0.627979 77.5044 34.1382 77.5044C57.075 77.5044 67.9042 77.4612 68.1148 77.3604C68.5058 77.1587 68.5058 76.4098 68.1148 76.2081C67.9192 76.1217 64.8209 76.0641 59.0754 76.0641H50.3369L51.2543 75.0126C53.8714 72.06 55.571 68.8193 56.684 64.6856C56.9998 63.5477 57.0299 63.058 57.075 57.2968L57.1502 51.1466H33.9878H10.8254L10.7202 55.6404Z" fill="white"/>
<path d="M4.47785 79.4547C9.56004 81.7458 17.3938 83.6127 24.7014 84.2774C25.9945 84.4047 26.5809 84.5037 26.3553 84.5603C26.0396 84.6451 26.0245 84.6593 26.2801 84.6734C26.4455 84.6876 27.468 84.7583 28.5355 84.8431C34.0387 85.225 45.827 84.9987 45.4962 84.5037C45.4511 84.433 45.4662 84.4047 45.5564 84.4471C45.6315 84.4896 45.9022 84.4754 46.1428 84.4047C46.5638 84.2916 46.5638 84.2916 45.9774 84.2633C45.6165 84.2491 46.3834 84.0794 47.8569 83.839C52.4429 83.1036 56.2169 82.2125 59.3144 81.1377C61.0886 80.5154 64.5319 79.1011 64.7725 78.8748C64.8476 78.8041 53.1045 78.7475 33.9485 78.7617L2.97424 78.7758L4.47785 79.4547Z" fill="white"/>
</svg>
